<?xml version="1.0" standalone="no"?>
<!DOCTYPE svg PUBLIC "-//W3C//DTD SVG 20010904//EN"
 "http://www.w3.org/TR/2001/REC-SVG-20010904/DTD/svg10.dtd">
<svg version="1.0" xmlns="http://www.w3.org/2000/svg"
 width="512.000000pt" height="512.000000pt" viewBox="0 0 512.000000 512.000000"
 preserveAspectRatio="xMidYMid meet">

<g transform="translate(0.000000,512.000000) scale(0.100000,-0.100000)"
fill="#000000" stroke="none">
<path d="M10 2555 l0 -2555 2555 0 2555 0 0 2555 0 2555 -2555 0 -2555 0 0
-2555z m2851 1765 c550 -68 1081 -330 1466 -722 l82 -83 -111 -168 -111 -168
-55 63 c-258 291 -614 517 -981 623 -641 184 -1314 58 -1853 -346 -46 -34
-144 -123 -219 -198 l-135 -137 -107 161 c-59 88 -107 166 -107 172 0 19 231
232 345 318 396 297 836 460 1350 499 77 6 342 -3 436 -14z m-101 -700 c321
-39 608 -151 853 -333 156 -116 397 -371 380 -402 -30 -51 -219 -335 -224
-335 -3 0 -29 35 -57 78 -331 500 -951 725 -1537 557 -121 -34 -331 -140 -436
-219 -109 -83 -238 -218 -312 -329 -33 -48 -61 -87 -63 -87 -4 0 -132 190
-197 292 l-36 56 78 94 c159 191 341 336 566 448 200 100 382 155 588 179 105
12 300 13 397 1z m-27 -886 c40 -8 119 -38 176 -66 91 -44 116 -62 191 -137
143 -143 210 -303 210 -496 0 -114 -17 -197 -58 -288 -37 -81 -682 -1042 -692
-1030 -38 42 -649 970 -675 1025 -96 201 -83 451 32 648 46 79 169 203 246
249 73 43 164 79 241 96 85 19 243 18 329 -1z"/>
<path d="M2443 2371 c-76 -28 -139 -77 -183 -144 -50 -75 -64 -123 -64 -218 1
-133 75 -255 192 -317 238 -127 526 28 549 295 11 134 -51 266 -161 339 -29
19 -75 42 -101 50 -66 20 -169 17 -232 -5z"/>
</g>
</svg>
