<?xml version="1.0" standalone="no"?>
<!DOCTYPE svg PUBLIC "-//W3C//DTD SVG 20010904//EN"
 "http://www.w3.org/TR/2001/REC-SVG-20010904/DTD/svg10.dtd">
<svg version="1.0" xmlns="http://www.w3.org/2000/svg"
 width="320.000000pt" height="413.000000pt" viewBox="0 0 320.000000 413.000000"
 preserveAspectRatio="xMidYMid meet">

<g transform="translate(0.000000,413.000000) scale(0.100000,-0.100000)"
fill="#000000" stroke="none">
<path d="M1440 3994 c-19 -2 -78 -11 -130 -20 -503 -86 -932 -481 -1115 -1026
-48 -145 -73 -267 -87 -434 -10 -123 -10 -154 5 -242 22 -139 67 -267 152
-441 208 -423 595 -945 1132 -1524 l166 -179 64 64 c103 100 388 403 504 533
579 658 911 1200 960 1574 22 159 -12 408 -82 614 -76 223 -205 438 -366 607
-232 244 -492 390 -800 450 -103 20 -326 33 -403 24z m201 -807 c15 -7 182
-170 372 -364 246 -251 347 -361 352 -382 8 -38 -16 -94 -49 -116 -17 -12 -40
-16 -71 -13 l-45 3 0 -253 0 -252 -217 2 -218 3 -5 205 c-6 235 -12 254 -88
291 -52 26 -130 22 -170 -8 -54 -40 -61 -72 -68 -291 l-7 -202 -219 0 -218 0
0 250 0 250 -44 0 c-73 0 -127 66 -110 135 8 31 682 723 723 742 14 7 33 12
41 12 8 0 27 -5 41 -12z"/>
</g>
</svg>
